<?xml version="1.0" encoding="UTF-8" ?>
<!DOCTYPE svg PUBLIC "-//W3C//DTD SVG 1.1//EN" "http://www.w3.org/Graphics/SVG/1.1/DTD/svg11.dtd">
<svg viewBox="0 0 150 150" version="1.1" xmlns="http://www.w3.org/2000/svg">
<path fill="#01b029" opacity="1.00" d=" M 48.99 0.00 L 77.72 0.00 C 77.78 2.60 77.87 5.30 76.72 7.71 C 64.80 35.86 53.21 64.15 41.43 92.35 C 39.98 95.78 38.85 99.41 36.59 102.41 C 24.39 102.56 12.19 102.71 0.00 102.30 L 0.00 99.48 C 0.87 96.64 2.12 93.95 3.26 91.22 C 13.38 67.34 23.28 43.37 33.35 19.48 C 35.06 15.49 36.42 11.33 38.66 7.60 C 41.01 3.84 45.21 1.97 48.99 0.00 Z" />
<path fill="#01b029" opacity="1.00" d=" M 91.66 0.00 L 142.48 0.00 C 143.28 2.57 143.71 5.23 143.61 7.93 C 143.50 19.13 143.66 30.34 143.59 41.55 C 134.20 42.32 124.74 41.32 115.36 42.02 C 113.59 41.95 113.02 43.82 112.40 45.10 C 105.75 61.19 98.88 77.18 92.15 93.24 C 90.97 96.25 89.70 99.23 88.09 102.04 C 77.39 102.61 66.65 102.06 55.94 102.31 C 53.87 102.09 51.24 102.87 49.66 101.14 C 49.12 99.49 49.76 97.79 50.32 96.25 C 63.23 66.08 75.91 35.82 88.74 5.62 C 89.60 3.69 90.56 1.80 91.66 0.00 Z" />
<path fill="#01b029" opacity="1.00" d=" M 118.61 55.63 C 119.43 53.80 120.38 51.06 122.93 51.63 C 129.83 51.86 136.81 51.09 143.65 52.10 C 144.12 63.41 143.72 74.74 143.85 86.06 C 144.17 92.16 140.46 98.34 134.74 100.62 C 129.11 102.91 122.92 102.09 117.00 102.23 C 111.51 102.07 105.90 102.82 100.55 101.25 C 100.39 98.29 101.90 95.66 102.98 93.00 C 108.22 80.55 113.38 68.08 118.61 55.63 Z" />
<path fill="#01b029" opacity="1.00" d=" M 0.00 110.40 C 50.00 110.40 100.00 110.42 150.00 110.39 L 150.00 117.40 C 135.17 127.00 120.71 137.16 106.07 147.04 C 104.25 148.44 101.92 148.89 99.78 147.95 C 66.54 137.31 33.26 126.75 0.00 116.13 L 0.00 110.40 Z" />
</svg>
